# xmcd
#
# Track frame offsets:
#	150
#	18075
#	36437
#	50616
#	72293
#	90960
#	108144
#	123639
#	138992
#	158795
#
# Disc length: 2347 seconds
#
# Revision: 0
# Processed by: cddbd v1.5.2PL0 Copyright (c) Steve Scherf et al.
# Submitted via: EasyCDDAExtractor 12.0.0.1
#
DISCID=7c09290a
DTITLE=Yolandita Monge - Mala
DYEAR=2008
DGENRE=Latin
TTITLE0=Una Y Otra Vez
TTITLE1=Sin Pensarlo
TTITLE2=Mala
TTITLE3=Nada Es Suficiente
TTITLE4=Oportunidad Perdida (Featuring Victor Manuelle)
TTITLE5=Seria Lamentable
TTITLE6=Vivire
TTITLE7=Amor Del Bueno
TTITLE8=A Quien Le Importa
TTITLE9=Peor Que Tu
EXTD=
EXTT0=
EXTT1=
EXTT2=
EXTT3=
EXTT4=
EXTT5=
EXTT6=
EXTT7=
EXTT8=
EXTT9=
PLAYORDER=
